<!DOCTYPE svg PUBLIC "-//W3C//DTD SVG 1.1//EN" "http://www.w3.org/Graphics/SVG/1.1/DTD/svg11.dtd">
<!-- Uploaded to: SVG Repo, www.svgrepo.com, Transformed by: SVG Repo Mixer Tools -->
<svg fill="#000000" version="1.1" id="Capa_1" xmlns="http://www.w3.org/2000/svg" xmlns:xlink="http://www.w3.org/1999/xlink" width="64px" height="64px" viewBox="-58.75 -58.75 705.02 705.02" xml:space="preserve" transform="rotate(270)" stroke="#000000" stroke-width="0.0058752">
<g id="SVGRepo_bgCarrier" stroke-width="0" transform="translate(0,0), scale(1)"/>
<g id="SVGRepo_tracerCarrier" stroke-linecap="round" stroke-linejoin="round" stroke="#CCCCCC" stroke-width="49.35168"> <g> <g> <path d="M228.481,335.581c0-5.07-4.109-9.18-9.18-9.18h-46.919c-5.071,0-9.18,4.109-9.18,9.18V382.5c0,5.07,4.109,9.18,9.18,9.18 h46.919c5.07,0,9.18-4.109,9.18-9.18V335.581L228.481,335.581z"/> <path d="M163.202,270.302c0-5.071-4.109-9.18-9.18-9.18H107.1c-5.07,0-9.18,4.109-9.18,9.18v46.918c0,5.07,4.11,9.181,9.18,9.181 h46.919c5.07,0,9.18-4.11,9.18-9.181v-46.918H163.202z"/> <path d="M237.661,326.401h46.919c5.07,0,9.18-4.11,9.18-9.181v-46.918c0-5.071-4.11-9.18-9.18-9.18h-46.919 c-5.07,0-9.18,4.109-9.18,9.18v46.918C228.481,322.291,232.591,326.401,237.661,326.401z"/> <path d="M228.481,205.02c0-5.07-4.109-9.18-9.18-9.18h-46.919c-5.071,0-9.18,4.11-9.18,9.18v46.919c0,5.07,4.109,9.18,9.18,9.18 h46.919c5.07,0,9.18-4.11,9.18-9.18V205.02L228.481,205.02z"/> <path d="M293.76,251.942c0,5.071,4.109,9.18,9.179,9.18h46.92c5.07,0,9.18-4.109,9.18-9.18V205.02c0-5.07-4.109-9.18-9.18-9.18 h-46.92c-5.07,0-9.179,4.11-9.179,9.18V251.942z"/> <path d="M284.58,130.561h-46.919c-5.07,0-9.18,4.109-9.18,9.18v46.919c0,5.07,4.11,9.18,9.18,9.18h46.919 c5.07,0,9.18-4.109,9.18-9.18v-46.919C293.76,134.67,289.65,130.561,284.58,130.561z"/> <path d="M424.32,139.741c0-5.071-4.109-9.18-9.18-9.18h-46.918c-5.07,0-9.18,4.109-9.18,9.18v46.919c0,5.07,4.109,9.18,9.18,9.18 h46.918c5.07,0,9.18-4.109,9.18-9.18V139.741z"/> <path d="M302.939,130.561h46.92c5.07,0,9.18-4.109,9.18-9.18V74.462c0-5.07-4.109-9.18-9.18-9.18h-46.92 c-5.07,0-9.179,4.109-9.179,9.18v46.919C293.76,126.452,297.873,130.561,302.939,130.561z"/> <path d="M480.42,65.282h-46.918c-5.072,0-9.182,4.109-9.182,9.18v46.919c0,5.071,4.109,9.18,9.182,9.18h46.918 c5.07,0,9.18-4.109,9.18-9.18V74.462C489.6,69.392,485.49,65.282,480.42,65.282z"/> <path d="M424.32,9.18c0-5.071-4.109-9.18-9.18-9.18h-46.918c-5.07,0-9.18,4.109-9.18,9.18v46.919c0,5.07,4.109,9.18,9.18,9.18 h46.918c5.07,0,9.18-4.109,9.18-9.18V9.18z"/> <path d="M302.939,391.68h46.92c5.07,0,9.18-4.109,9.18-9.18v-46.919c0-5.07-4.109-9.18-9.18-9.18h-46.92 c-5.07,0-9.179,4.109-9.179,9.18V382.5C293.76,387.57,297.873,391.68,302.939,391.68z"/> <path d="M293.76,400.86c0-5.07-4.11-9.181-9.18-9.181h-46.919c-5.07,0-9.18,4.11-9.18,9.181v46.919c0,5.07,4.11,9.18,9.18,9.18 h46.919c5.07,0,9.18-4.109,9.18-9.18V400.86z"/> <path d="M368.223,456.962h46.918c5.07,0,9.18-4.109,9.18-9.18v-46.919c0-5.07-4.109-9.181-9.18-9.181h-46.918 c-5.07,0-9.18,4.11-9.18,9.181v46.919C359.043,452.85,363.152,456.962,368.223,456.962z"/> <path d="M359.043,466.142c0-5.07-4.111-9.18-9.182-9.18h-46.918c-5.07,0-9.18,4.109-9.18,9.18v46.919 c0,5.071,4.11,9.181,9.18,9.181h46.918c5.07,0,9.182-4.109,9.182-9.181V466.142z"/> <path d="M480.42,456.962h-46.918c-5.072,0-9.182,4.109-9.182,9.18v46.919c0,5.071,4.109,9.181,9.182,9.181h46.918 c5.07,0,9.18-4.109,9.18-9.181v-46.919C489.6,461.071,485.49,456.962,480.42,456.962z"/> <path d="M415.141,522.241h-46.918c-5.07,0-9.18,4.109-9.18,9.18v46.919c0,5.07,4.109,9.18,9.18,9.18h46.918 c5.07,0,9.18-4.109,9.18-9.18v-46.919C424.32,526.351,420.211,522.241,415.141,522.241z"/> </g> </g> </g>
<g id="SVGRepo_iconCarrier"> <g> <g> <path d="M228.481,335.581c0-5.07-4.109-9.18-9.18-9.18h-46.919c-5.071,0-9.18,4.109-9.18,9.18V382.5c0,5.07,4.109,9.18,9.18,9.18 h46.919c5.07,0,9.18-4.109,9.18-9.18V335.581L228.481,335.581z"/> <path d="M163.202,270.302c0-5.071-4.109-9.18-9.18-9.18H107.1c-5.07,0-9.18,4.109-9.18,9.18v46.918c0,5.07,4.11,9.181,9.18,9.181 h46.919c5.07,0,9.18-4.11,9.18-9.181v-46.918H163.202z"/> <path d="M237.661,326.401h46.919c5.07,0,9.18-4.11,9.18-9.181v-46.918c0-5.071-4.11-9.18-9.18-9.18h-46.919 c-5.07,0-9.18,4.109-9.18,9.18v46.918C228.481,322.291,232.591,326.401,237.661,326.401z"/> <path d="M228.481,205.02c0-5.07-4.109-9.18-9.18-9.18h-46.919c-5.071,0-9.18,4.11-9.18,9.18v46.919c0,5.07,4.109,9.18,9.18,9.18 h46.919c5.07,0,9.18-4.11,9.18-9.18V205.02L228.481,205.02z"/> <path d="M293.76,251.942c0,5.071,4.109,9.18,9.179,9.18h46.92c5.07,0,9.18-4.109,9.18-9.18V205.02c0-5.07-4.109-9.18-9.18-9.18 h-46.92c-5.07,0-9.179,4.11-9.179,9.18V251.942z"/> <path d="M284.58,130.561h-46.919c-5.07,0-9.18,4.109-9.18,9.18v46.919c0,5.07,4.11,9.18,9.18,9.18h46.919 c5.07,0,9.18-4.109,9.18-9.18v-46.919C293.76,134.67,289.65,130.561,284.58,130.561z"/> <path d="M424.32,139.741c0-5.071-4.109-9.18-9.18-9.18h-46.918c-5.07,0-9.18,4.109-9.18,9.18v46.919c0,5.07,4.109,9.18,9.18,9.18 h46.918c5.07,0,9.18-4.109,9.18-9.18V139.741z"/> <path d="M302.939,130.561h46.92c5.07,0,9.18-4.109,9.18-9.18V74.462c0-5.07-4.109-9.18-9.18-9.18h-46.92 c-5.07,0-9.179,4.109-9.179,9.18v46.919C293.76,126.452,297.873,130.561,302.939,130.561z"/> <path d="M480.42,65.282h-46.918c-5.072,0-9.182,4.109-9.182,9.18v46.919c0,5.071,4.109,9.18,9.182,9.18h46.918 c5.07,0,9.18-4.109,9.18-9.18V74.462C489.6,69.392,485.49,65.282,480.42,65.282z"/> <path d="M424.32,9.18c0-5.071-4.109-9.18-9.18-9.18h-46.918c-5.07,0-9.18,4.109-9.18,9.18v46.919c0,5.07,4.109,9.18,9.18,9.18 h46.918c5.07,0,9.18-4.109,9.18-9.18V9.18z"/> <path d="M302.939,391.68h46.92c5.07,0,9.18-4.109,9.18-9.18v-46.919c0-5.07-4.109-9.18-9.18-9.18h-46.92 c-5.07,0-9.179,4.109-9.179,9.18V382.5C293.76,387.57,297.873,391.68,302.939,391.68z"/> <path d="M293.76,400.86c0-5.07-4.11-9.181-9.18-9.181h-46.919c-5.07,0-9.18,4.11-9.18,9.181v46.919c0,5.07,4.11,9.18,9.18,9.18 h46.919c5.07,0,9.18-4.109,9.18-9.18V400.86z"/> <path d="M368.223,456.962h46.918c5.07,0,9.18-4.109,9.18-9.18v-46.919c0-5.07-4.109-9.181-9.18-9.181h-46.918 c-5.07,0-9.18,4.11-9.18,9.181v46.919C359.043,452.85,363.152,456.962,368.223,456.962z"/> <path d="M359.043,466.142c0-5.07-4.111-9.18-9.182-9.18h-46.918c-5.07,0-9.18,4.109-9.18,9.18v46.919 c0,5.071,4.11,9.181,9.18,9.181h46.918c5.07,0,9.182-4.109,9.182-9.181V466.142z"/> <path d="M480.42,456.962h-46.918c-5.072,0-9.182,4.109-9.182,9.18v46.919c0,5.071,4.109,9.181,9.182,9.181h46.918 c5.07,0,9.18-4.109,9.18-9.181v-46.919C489.6,461.071,485.49,456.962,480.42,456.962z"/> <path d="M415.141,522.241h-46.918c-5.07,0-9.18,4.109-9.18,9.18v46.919c0,5.07,4.109,9.18,9.18,9.18h46.918 c5.07,0,9.18-4.109,9.18-9.18v-46.919C424.32,526.351,420.211,522.241,415.141,522.241z"/> </g> </g> </g>
</svg>